# xmcd
#
# Track frame offsets: 
#        150
#        2128
#        18175
#        32764
#        50883
#
# Disc length: 1070 seconds
#
# Revision: 2
# Processed by: cddbd v1.5.2PL0 Copyright (c) Steve Scherf et al.
# Submitted via: ExactAudioCopyFreeDBPlugin 1.0
#
DISCID=36042c05
DTITLE=Mr. Schnabel - Ruff in Micros
DYEAR=1999
DGENRE=Hip Hop
TTITLE0=Intro
TTITLE1=Ruff in Micros
TTITLE2=Zurück im Effekt
TTITLE3=Seid ihr unten mit mir?
TTITLE4=Eimsbusch Style feat. Samy Deluxe
EXTD=
EXTT0=
EXTT1=
EXTT2=
EXTT3=
EXTT4=
PLAYORDER=
